M48
; DRILL file KiCad 10.0.0 date 2026-05-02T07:21:40
; FORMAT={-:-/ absolute / metric / decimal}
; #@! TF.CreationDate,2026-05-02T07:21:40-05:00
; #@! TF.GenerationSoftware,Kicad,Pcbnew,10.0.0
; #@! TF.FileFunction,Plated,1,4,PTH
FMAT,2
METRIC
; #@! TA.AperFunction,Plated,PTH,ComponentDrill
T1C0.200
; #@! TA.AperFunction,Plated,PTH,ComponentDrill
T2C1.000
; #@! TA.AperFunction,Plated,PTH,ComponentDrill
T3C2.500
; #@! TA.AperFunction,Plated,PTH,ComponentDrill
T4C2.800
; #@! TA.AperFunction,Plated,PTH,ComponentDrill
T5C3.175
%
G90
G05
T1
X78.48Y-129.735
X78.48Y-131.135
X79.18Y-129.035
X79.18Y-130.435
X79.18Y-131.835
X79.88Y-129.735
X79.88Y-131.135
X80.58Y-129.035
X80.58Y-130.435
X80.58Y-131.835
X81.28Y-129.735
X81.28Y-131.135
T2
X62.23Y-128.27
X62.23Y-130.81
X62.23Y-133.35
X62.23Y-135.89
X62.23Y-138.43
X97.79Y-121.92
X97.79Y-124.46
X97.79Y-127.0
X97.79Y-129.54
X97.79Y-132.08
X97.79Y-134.62
X97.79Y-137.16
X97.79Y-139.7
X102.87Y-123.19
X102.87Y-125.73
X102.87Y-128.27
X102.87Y-130.81
X102.87Y-133.35
X102.87Y-135.89
X102.87Y-138.43
X113.728Y-134.62
X113.728Y-137.16
X113.728Y-139.7
T3
X55.865Y-129.525
X55.865Y-135.575
T4
X58.928Y-113.284
X58.928Y-121.412
X97.79Y-114.3
X104.14Y-114.3
T5
X53.086Y-105.918
X53.086Y-148.844
X117.602Y-105.918
X117.602Y-148.59
M30
