%TF.GenerationSoftware,KiCad,Pcbnew,10.0.0*%
%TF.CreationDate,2026-05-02T07:21:21-05:00*%
%TF.ProjectId,wificar,77696669-6361-4722-9e6b-696361645f70,rev?*%
%TF.SameCoordinates,Original*%
%TF.FileFunction,Legend,Bot*%
%TF.FilePolarity,Positive*%
%FSLAX46Y46*%
G04 Gerber Fmt 4.6, Leading zero omitted, Abs format (unit mm)*
G04 Created by KiCad (PCBNEW 10.0.0) date 2026-05-02 07:21:21*
%MOMM*%
%LPD*%
G01*
G04 APERTURE LIST*
%ADD10C,0.150000*%
%ADD11C,0.120000*%
G04 APERTURE END LIST*
D10*
X61975619Y-124843009D02*
X61832762Y-124890628D01*
X61832762Y-124890628D02*
X61785143Y-124938247D01*
X61785143Y-124938247D02*
X61737524Y-125033485D01*
X61737524Y-125033485D02*
X61737524Y-125176342D01*
X61737524Y-125176342D02*
X61785143Y-125271580D01*
X61785143Y-125271580D02*
X61832762Y-125319200D01*
X61832762Y-125319200D02*
X61928000Y-125366819D01*
X61928000Y-125366819D02*
X62308952Y-125366819D01*
X62308952Y-125366819D02*
X62308952Y-124366819D01*
X62308952Y-124366819D02*
X61975619Y-124366819D01*
X61975619Y-124366819D02*
X61880381Y-124414438D01*
X61880381Y-124414438D02*
X61832762Y-124462057D01*
X61832762Y-124462057D02*
X61785143Y-124557295D01*
X61785143Y-124557295D02*
X61785143Y-124652533D01*
X61785143Y-124652533D02*
X61832762Y-124747771D01*
X61832762Y-124747771D02*
X61880381Y-124795390D01*
X61880381Y-124795390D02*
X61975619Y-124843009D01*
X61975619Y-124843009D02*
X62308952Y-124843009D01*
X60880381Y-125366819D02*
X60880381Y-124843009D01*
X60880381Y-124843009D02*
X60928000Y-124747771D01*
X60928000Y-124747771D02*
X61023238Y-124700152D01*
X61023238Y-124700152D02*
X61213714Y-124700152D01*
X61213714Y-124700152D02*
X61308952Y-124747771D01*
X60880381Y-125319200D02*
X60975619Y-125366819D01*
X60975619Y-125366819D02*
X61213714Y-125366819D01*
X61213714Y-125366819D02*
X61308952Y-125319200D01*
X61308952Y-125319200D02*
X61356571Y-125223961D01*
X61356571Y-125223961D02*
X61356571Y-125128723D01*
X61356571Y-125128723D02*
X61308952Y-125033485D01*
X61308952Y-125033485D02*
X61213714Y-124985866D01*
X61213714Y-124985866D02*
X60975619Y-124985866D01*
X60975619Y-124985866D02*
X60880381Y-124938247D01*
X60547047Y-124700152D02*
X60166095Y-124700152D01*
X60404190Y-124366819D02*
X60404190Y-125223961D01*
X60404190Y-125223961D02*
X60356571Y-125319200D01*
X60356571Y-125319200D02*
X60261333Y-125366819D01*
X60261333Y-125366819D02*
X60166095Y-125366819D01*
X59975618Y-124700152D02*
X59594666Y-124700152D01*
X59832761Y-124366819D02*
X59832761Y-125223961D01*
X59832761Y-125223961D02*
X59785142Y-125319200D01*
X59785142Y-125319200D02*
X59689904Y-125366819D01*
X59689904Y-125366819D02*
X59594666Y-125366819D01*
X58880380Y-125319200D02*
X58975618Y-125366819D01*
X58975618Y-125366819D02*
X59166094Y-125366819D01*
X59166094Y-125366819D02*
X59261332Y-125319200D01*
X59261332Y-125319200D02*
X59308951Y-125223961D01*
X59308951Y-125223961D02*
X59308951Y-124843009D01*
X59308951Y-124843009D02*
X59261332Y-124747771D01*
X59261332Y-124747771D02*
X59166094Y-124700152D01*
X59166094Y-124700152D02*
X58975618Y-124700152D01*
X58975618Y-124700152D02*
X58880380Y-124747771D01*
X58880380Y-124747771D02*
X58832761Y-124843009D01*
X58832761Y-124843009D02*
X58832761Y-124938247D01*
X58832761Y-124938247D02*
X59308951Y-125033485D01*
X58404189Y-125366819D02*
X58404189Y-124700152D01*
X58404189Y-124890628D02*
X58356570Y-124795390D01*
X58356570Y-124795390D02*
X58308951Y-124747771D01*
X58308951Y-124747771D02*
X58213713Y-124700152D01*
X58213713Y-124700152D02*
X58118475Y-124700152D01*
X57880379Y-124700152D02*
X57642284Y-125366819D01*
X57404189Y-124700152D02*
X57642284Y-125366819D01*
X57642284Y-125366819D02*
X57737522Y-125604914D01*
X57737522Y-125604914D02*
X57785141Y-125652533D01*
X57785141Y-125652533D02*
X57880379Y-125700152D01*
X57261332Y-125462057D02*
X56499427Y-125462057D01*
X56261331Y-124985866D02*
X55499427Y-124985866D01*
X55880379Y-125366819D02*
X55880379Y-124604914D01*
X54499427Y-125366819D02*
X55070855Y-125366819D01*
X54785141Y-125366819D02*
X54785141Y-124366819D01*
X54785141Y-124366819D02*
X54880379Y-124509676D01*
X54880379Y-124509676D02*
X54975617Y-124604914D01*
X54975617Y-124604914D02*
X55070855Y-124652533D01*
X61975619Y-116715009D02*
X61832762Y-116762628D01*
X61832762Y-116762628D02*
X61785143Y-116810247D01*
X61785143Y-116810247D02*
X61737524Y-116905485D01*
X61737524Y-116905485D02*
X61737524Y-117048342D01*
X61737524Y-117048342D02*
X61785143Y-117143580D01*
X61785143Y-117143580D02*
X61832762Y-117191200D01*
X61832762Y-117191200D02*
X61928000Y-117238819D01*
X61928000Y-117238819D02*
X62308952Y-117238819D01*
X62308952Y-117238819D02*
X62308952Y-116238819D01*
X62308952Y-116238819D02*
X61975619Y-116238819D01*
X61975619Y-116238819D02*
X61880381Y-116286438D01*
X61880381Y-116286438D02*
X61832762Y-116334057D01*
X61832762Y-116334057D02*
X61785143Y-116429295D01*
X61785143Y-116429295D02*
X61785143Y-116524533D01*
X61785143Y-116524533D02*
X61832762Y-116619771D01*
X61832762Y-116619771D02*
X61880381Y-116667390D01*
X61880381Y-116667390D02*
X61975619Y-116715009D01*
X61975619Y-116715009D02*
X62308952Y-116715009D01*
X60880381Y-117238819D02*
X60880381Y-116715009D01*
X60880381Y-116715009D02*
X60928000Y-116619771D01*
X60928000Y-116619771D02*
X61023238Y-116572152D01*
X61023238Y-116572152D02*
X61213714Y-116572152D01*
X61213714Y-116572152D02*
X61308952Y-116619771D01*
X60880381Y-117191200D02*
X60975619Y-117238819D01*
X60975619Y-117238819D02*
X61213714Y-117238819D01*
X61213714Y-117238819D02*
X61308952Y-117191200D01*
X61308952Y-117191200D02*
X61356571Y-117095961D01*
X61356571Y-117095961D02*
X61356571Y-117000723D01*
X61356571Y-117000723D02*
X61308952Y-116905485D01*
X61308952Y-116905485D02*
X61213714Y-116857866D01*
X61213714Y-116857866D02*
X60975619Y-116857866D01*
X60975619Y-116857866D02*
X60880381Y-116810247D01*
X60547047Y-116572152D02*
X60166095Y-116572152D01*
X60404190Y-116238819D02*
X60404190Y-117095961D01*
X60404190Y-117095961D02*
X60356571Y-117191200D01*
X60356571Y-117191200D02*
X60261333Y-117238819D01*
X60261333Y-117238819D02*
X60166095Y-117238819D01*
X59975618Y-116572152D02*
X59594666Y-116572152D01*
X59832761Y-116238819D02*
X59832761Y-117095961D01*
X59832761Y-117095961D02*
X59785142Y-117191200D01*
X59785142Y-117191200D02*
X59689904Y-117238819D01*
X59689904Y-117238819D02*
X59594666Y-117238819D01*
X58880380Y-117191200D02*
X58975618Y-117238819D01*
X58975618Y-117238819D02*
X59166094Y-117238819D01*
X59166094Y-117238819D02*
X59261332Y-117191200D01*
X59261332Y-117191200D02*
X59308951Y-117095961D01*
X59308951Y-117095961D02*
X59308951Y-116715009D01*
X59308951Y-116715009D02*
X59261332Y-116619771D01*
X59261332Y-116619771D02*
X59166094Y-116572152D01*
X59166094Y-116572152D02*
X58975618Y-116572152D01*
X58975618Y-116572152D02*
X58880380Y-116619771D01*
X58880380Y-116619771D02*
X58832761Y-116715009D01*
X58832761Y-116715009D02*
X58832761Y-116810247D01*
X58832761Y-116810247D02*
X59308951Y-116905485D01*
X58404189Y-117238819D02*
X58404189Y-116572152D01*
X58404189Y-116762628D02*
X58356570Y-116667390D01*
X58356570Y-116667390D02*
X58308951Y-116619771D01*
X58308951Y-116619771D02*
X58213713Y-116572152D01*
X58213713Y-116572152D02*
X58118475Y-116572152D01*
X57880379Y-116572152D02*
X57642284Y-117238819D01*
X57404189Y-116572152D02*
X57642284Y-117238819D01*
X57642284Y-117238819D02*
X57737522Y-117476914D01*
X57737522Y-117476914D02*
X57785141Y-117524533D01*
X57785141Y-117524533D02*
X57880379Y-117572152D01*
X57261332Y-117334057D02*
X56499427Y-117334057D01*
X56261331Y-116857866D02*
X55499427Y-116857866D01*
X54499427Y-117238819D02*
X55070855Y-117238819D01*
X54785141Y-117238819D02*
X54785141Y-116238819D01*
X54785141Y-116238819D02*
X54880379Y-116381676D01*
X54880379Y-116381676D02*
X54975617Y-116476914D01*
X54975617Y-116476914D02*
X55070855Y-116524533D01*
%TO.C,Battery_+1*%
D11*
X61628000Y-121412000D02*
G75*
G02*
X56228000Y-121412000I-2700000J0D01*
G01*
X56228000Y-121412000D02*
G75*
G02*
X61628000Y-121412000I2700000J0D01*
G01*
%TO.C,Battery_-1*%
X61628000Y-113284000D02*
G75*
G02*
X56228000Y-113284000I-2700000J0D01*
G01*
X56228000Y-113284000D02*
G75*
G02*
X61628000Y-113284000I2700000J0D01*
G01*
%TD*%
M02*
