%TF.GenerationSoftware,KiCad,Pcbnew,10.0.0*%
%TF.CreationDate,2026-05-02T07:21:21-05:00*%
%TF.ProjectId,wificar,77696669-6361-4722-9e6b-696361645f70,rev?*%
%TF.SameCoordinates,Original*%
%TF.FileFunction,Copper,L3,Inr*%
%TF.FilePolarity,Positive*%
%FSLAX46Y46*%
G04 Gerber Fmt 4.6, Leading zero omitted, Abs format (unit mm)*
G04 Created by KiCad (PCBNEW 10.0.0) date 2026-05-02 07:21:21*
%MOMM*%
%LPD*%
G01*
G04 APERTURE LIST*
%TA.AperFunction,ComponentPad*%
%ADD10R,1.700000X1.700000*%
%TD*%
%TA.AperFunction,ComponentPad*%
%ADD11C,1.700000*%
%TD*%
%TA.AperFunction,ComponentPad*%
%ADD12C,4.800000*%
%TD*%
%TA.AperFunction,ComponentPad*%
%ADD13C,4.000000*%
%TD*%
%TA.AperFunction,ComponentPad*%
%ADD14C,4.445000*%
%TD*%
%TA.AperFunction,ComponentPad*%
%ADD15C,1.800000*%
%TD*%
%TA.AperFunction,ComponentPad*%
%ADD16R,1.800000X1.800000*%
%TD*%
%TA.AperFunction,HeatsinkPad*%
%ADD17C,0.600000*%
%TD*%
G04 APERTURE END LIST*
D10*
%TO.N,+12V*%
%TO.C,DC-DC_Converter1*%
X62230000Y-128270000D03*
D11*
%TO.N,+5V*%
X62230000Y-130810000D03*
%TO.N,GND*%
X62230000Y-133350000D03*
%TO.N,unconnected-(DC-DC_Converter1-FB-Pad4)*%
X62230000Y-135890000D03*
%TO.N,GND*%
X62230000Y-138430000D03*
%TD*%
D12*
%TO.N,+12V*%
%TO.C,Battery_+1*%
X58928000Y-121412000D03*
%TD*%
%TO.N,GND*%
%TO.C,Battery_-1*%
X58928000Y-113284000D03*
%TD*%
D13*
%TO.N,+5V*%
%TO.C,Camera_+1*%
X55865000Y-135575000D03*
%TD*%
%TO.N,GND*%
%TO.C,Camera_-1*%
X55865000Y-129525000D03*
%TD*%
D14*
%TO.N,GNDPWR*%
%TO.C,M1*%
X53086000Y-105918000D03*
%TD*%
%TO.N,GNDPWR*%
%TO.C,M2*%
X117602000Y-105918000D03*
%TD*%
%TO.N,GNDPWR*%
%TO.C,M3*%
X53086000Y-148844000D03*
%TD*%
%TO.N,GNDPWR*%
%TO.C,M4*%
X117602000Y-148590000D03*
%TD*%
D15*
%TO.N,unconnected-(MotorDriver1-SENSE_B-Pad15)*%
%TO.C,MotorDriver1*%
X97790000Y-139700000D03*
%TO.N,unconnected-(MotorDriver1-OUT4-Pad14)*%
X102870000Y-138430000D03*
%TO.N,unconnected-(MotorDriver1-OUT3-Pad13)*%
X97790000Y-137160000D03*
%TO.N,unconnected-(MotorDriver1-IN4-Pad12)*%
X102870000Y-135890000D03*
%TO.N,unconnected-(MotorDriver1-EnB-Pad11)*%
X97790000Y-134620000D03*
%TO.N,unconnected-(MotorDriver1-IN3-Pad10)*%
X102870000Y-133350000D03*
%TO.N,unconnected-(MotorDriver1-Vss-Pad9)*%
X97790000Y-132080000D03*
%TO.N,GND*%
X102870000Y-130810000D03*
%TO.N,MotorIN2*%
X97790000Y-129540000D03*
%TO.N,Motor_PWM*%
X102870000Y-128270000D03*
%TO.N,MotorIN1*%
X97790000Y-127000000D03*
%TO.N,+12V*%
X102870000Y-125730000D03*
%TO.N,Net-(MotorDriver1-OUT2)*%
X97790000Y-124460000D03*
%TO.N,Net-(MotorDriver1-OUT1)*%
X102870000Y-123190000D03*
D16*
%TO.N,unconnected-(MotorDriver1-SENSE_A-Pad1)*%
X97790000Y-121920000D03*
%TD*%
D12*
%TO.N,Net-(MotorDriver1-OUT1)*%
%TO.C,MotorN1*%
X104140000Y-114300000D03*
%TD*%
%TO.N,Net-(MotorDriver1-OUT2)*%
%TO.C,MotorP1*%
X97790000Y-114300000D03*
%TD*%
D11*
%TO.N,GND*%
%TO.C,Servo1*%
X113728500Y-139700000D03*
%TO.N,+5V*%
X113728500Y-137160000D03*
D10*
%TO.N,Servo_PWM*%
X113728500Y-134620000D03*
%TD*%
D17*
%TO.N,GND*%
%TO.C,ESP1*%
X81280000Y-131135000D03*
X81280000Y-129735000D03*
X80580000Y-131835000D03*
X80580000Y-130435000D03*
X80580000Y-129035000D03*
X79880000Y-131135000D03*
X79880000Y-129735000D03*
X79180000Y-131835000D03*
X79180000Y-130435000D03*
X79180000Y-129035000D03*
X78480000Y-131135000D03*
X78480000Y-129735000D03*
%TD*%
%TA.AperFunction,Conductor*%
%TO.N,+5V*%
G36*
X120600539Y-102882185D02*
G01*
X120646294Y-102934989D01*
X120657500Y-102986500D01*
X120657500Y-151775500D01*
X120637815Y-151842539D01*
X120585011Y-151888294D01*
X120533500Y-151899500D01*
X50154500Y-151899500D01*
X50087461Y-151879815D01*
X50041706Y-151827011D01*
X50030500Y-151775500D01*
X50030500Y-148691073D01*
X50363000Y-148691073D01*
X50363000Y-148996926D01*
X50397240Y-149300823D01*
X50397243Y-149300837D01*
X50465299Y-149599014D01*
X50465302Y-149599022D01*
X50566313Y-149887692D01*
X50566316Y-149887700D01*
X50699007Y-150163236D01*
X50699011Y-150163242D01*
X50861728Y-150422205D01*
X51052417Y-150661321D01*
X51268679Y-150877583D01*
X51507795Y-151068272D01*
X51734470Y-151210701D01*
X51766763Y-151230992D01*
X52042299Y-151363683D01*
X52042306Y-151363685D01*
X52042311Y-151363688D01*
X52259113Y-151439550D01*
X52330977Y-151464697D01*
X52330985Y-151464700D01*
X52330988Y-151464700D01*
X52330989Y-151464701D01*
X52629162Y-151532757D01*
X52629171Y-151532758D01*
X52629176Y-151532759D01*
X52831774Y-151555585D01*
X52933074Y-151566999D01*
X52933077Y-151567000D01*
X52933080Y-151567000D01*
X53238923Y-151567000D01*
X53238924Y-151566999D01*
X53394241Y-151549499D01*
X53542823Y-151532759D01*
X53542826Y-151532758D01*
X53542838Y-151532757D01*
X53841011Y-151464701D01*
X54129689Y-151363688D01*
X54129697Y-151363684D01*
X54129700Y-151363683D01*
X54405236Y-151230992D01*
X54405236Y-151230991D01*
X54405242Y-151230989D01*
X54664205Y-151068272D01*
X54903321Y-150877583D01*
X55119583Y-150661321D01*
X55310272Y-150422205D01*
X55472989Y-150163242D01*
X55605688Y-149887689D01*
X55706701Y-149599011D01*
X55774757Y-149300838D01*
X55809000Y-148996920D01*
X55809000Y-148691080D01*
X55781554Y-148447484D01*
X55780381Y-148437073D01*
X114879000Y-148437073D01*
X114879000Y-148742926D01*
X114913240Y-149046823D01*
X114913243Y-149046837D01*
X114981299Y-149345014D01*
X114981302Y-149345022D01*
X115082313Y-149633692D01*
X115082316Y-149633700D01*
X115215007Y-149909236D01*
X115215011Y-149909242D01*
X115377728Y-150168205D01*
X115568417Y-150407321D01*
X115784679Y-150623583D01*
X116023795Y-150814272D01*
X116282758Y-150976989D01*
X116282763Y-150976992D01*
X116558299Y-151109683D01*
X116558306Y-151109685D01*
X116558311Y-151109688D01*
X116775113Y-151185550D01*
X116846977Y-151210697D01*
X116846985Y-151210700D01*
X116846988Y-151210700D01*
X116846989Y-151210701D01*
X117145162Y-151278757D01*
X117145171Y-151278758D01*
X117145176Y-151278759D01*
X117347774Y-151301585D01*
X117449074Y-151312999D01*
X117449077Y-151313000D01*
X117449080Y-151313000D01*
X117754923Y-151313000D01*
X117754924Y-151312999D01*
X117910241Y-151295499D01*
X118058823Y-151278759D01*
X118058826Y-151278758D01*
X118058838Y-151278757D01*
X118357011Y-151210701D01*
X118645689Y-151109688D01*
X118645697Y-151109684D01*
X118645700Y-151109683D01*
X118921236Y-150976992D01*
X118921236Y-150976991D01*
X118921242Y-150976989D01*
X119180205Y-150814272D01*
X119419321Y-150623583D01*
X119635583Y-150407321D01*
X119826272Y-150168205D01*
X119988989Y-149909242D01*
X120121688Y-149633689D01*
X120222701Y-149345011D01*
X120290757Y-149046838D01*
X120296382Y-148996920D01*
X120324999Y-148742926D01*
X120325000Y-148742922D01*
X120325000Y-148437077D01*
X120324999Y-148437073D01*
X120290759Y-148133176D01*
X120290758Y-148133171D01*
X120290757Y-148133162D01*
X120222701Y-147834989D01*
X120210562Y-147800299D01*
X120197550Y-147763113D01*
X120121688Y-147546311D01*
X120121685Y-147546306D01*
X120121683Y-147546299D01*
X119988992Y-147270763D01*
X119985871Y-147265796D01*
X119826272Y-147011795D01*
X119635583Y-146772679D01*
X119419321Y-146556417D01*
X119180205Y-146365728D01*
X118921242Y-146203011D01*
X118921243Y-146203011D01*
X118921236Y-146203007D01*
X118645700Y-146070316D01*
X118645692Y-146070313D01*
X118357022Y-145969302D01*
X118357014Y-145969299D01*
X118133381Y-145918257D01*
X118058838Y-145901243D01*
X118058835Y-145901242D01*
X118058823Y-145901240D01*
X117754926Y-145867000D01*
X117754920Y-145867000D01*
X117449080Y-145867000D01*
X117449073Y-145867000D01*
X117145176Y-145901240D01*
X117145162Y-145901243D01*
X116846985Y-145969299D01*
X116846977Y-145969302D01*
X116558307Y-146070313D01*
X116558299Y-146070316D01*
X116282763Y-146203007D01*
X116023796Y-146365727D01*
X115784679Y-146556416D01*
X115568416Y-146772679D01*
X115377727Y-147011796D01*
X115215007Y-147270763D01*
X115082316Y-147546299D01*
X115082313Y-147546307D01*
X114981302Y-147834977D01*
X114981299Y-147834985D01*
X114913243Y-148133162D01*
X114913240Y-148133176D01*
X114879000Y-148437073D01*
X55780381Y-148437073D01*
X55774759Y-148387175D01*
X55774757Y-148387170D01*
X55774757Y-148387162D01*
X55706701Y-148088989D01*
X55605688Y-147800311D01*
X55605685Y-147800306D01*
X55605683Y-147800299D01*
X55472992Y-147524763D01*
X55472989Y-147524758D01*
X55310272Y-147265795D01*
X55119583Y-147026679D01*
X54903321Y-146810417D01*
X54664205Y-146619728D01*
X54405242Y-146457011D01*
X54405243Y-146457011D01*
X54405236Y-146457007D01*
X54129700Y-146324316D01*
X54129692Y-146324313D01*
X53841022Y-146223302D01*
X53841014Y-146223299D01*
X53617381Y-146172257D01*
X53542838Y-146155243D01*
X53542835Y-146155242D01*
X53542823Y-146155240D01*
X53238926Y-146121000D01*
X53238920Y-146121000D01*
X52933080Y-146121000D01*
X52933073Y-146121000D01*
X52629176Y-146155240D01*
X52629162Y-146155243D01*
X52330985Y-146223299D01*
X52330977Y-146223302D01*
X52042307Y-146324313D01*
X52042299Y-146324316D01*
X51766763Y-146457007D01*
X51507796Y-146619727D01*
X51268679Y-146810416D01*
X51052416Y-147026679D01*
X50861727Y-147265796D01*
X50699007Y-147524763D01*
X50566316Y-147800299D01*
X50566313Y-147800307D01*
X50465302Y-148088977D01*
X50465299Y-148088985D01*
X50397243Y-148387162D01*
X50397240Y-148387176D01*
X50363000Y-148691073D01*
X50030500Y-148691073D01*
X50030500Y-135434598D01*
X53365000Y-135434598D01*
X53365000Y-135715401D01*
X53396437Y-135994412D01*
X53396439Y-135994424D01*
X53458921Y-136268178D01*
X53458922Y-136268180D01*
X53551662Y-136533217D01*
X53673492Y-136786200D01*
X53822884Y-137023956D01*
X53929187Y-137157257D01*
X54821320Y-136265124D01*
X54911554Y-136389320D01*
X55050680Y-136528446D01*
X55174873Y-136618678D01*
X54282741Y-137510810D01*
X54282741Y-137510811D01*
X54416043Y-137617115D01*
X54653799Y-137766507D01*
X54906782Y-137888337D01*
X55171819Y-137981077D01*
X55171821Y-137981078D01*
X55445575Y-138043560D01*
X55445587Y-138043562D01*
X55724598Y-138074999D01*
X55724600Y-138075000D01*
X56005400Y-138075000D01*
X56005401Y-138074999D01*
X56284412Y-138043562D01*
X56284424Y-138043560D01*
X56558178Y-137981078D01*
X56558180Y-137981077D01*
X56823217Y-137888337D01*
X57076200Y-137766507D01*
X57313956Y-137617116D01*
X57447257Y-137510810D01*
X56555125Y-136618679D01*
X56679320Y-136528446D01*
X56818446Y-136389320D01*
X56908679Y-136265125D01*
X57800810Y-137157257D01*
X57907116Y-137023956D01*
X58056507Y-136786200D01*
X58178337Y-136533217D01*
X58271077Y-136268180D01*
X58271078Y-136268178D01*
X58333560Y-135994424D01*
X58333562Y-135994412D01*
X58364999Y-135715401D01*
X58365000Y-135715399D01*
X58365000Y-135434600D01*
X58364999Y-135434598D01*
X58333562Y-135155587D01*
X58333560Y-135155575D01*
X58271078Y-134881821D01*
X58271077Y-134881819D01*
X58178337Y-134616782D01*
X58056507Y-134363799D01*
X57907115Y-134126043D01*
X57800810Y-133992741D01*
X56908678Y-134884873D01*
X56818446Y-134760680D01*
X56679320Y-134621554D01*
X56555125Y-134531320D01*
X57447257Y-133639187D01*
X57313956Y-133532884D01*
X57076197Y-133383490D01*
X57007818Y-133350561D01*
X57007817Y-133350561D01*
X56823217Y-133261662D01*
X56558180Y-133168922D01*
X56558178Y-133168921D01*
X56284424Y-133106439D01*
X56284412Y-133106437D01*
X56005401Y-133075000D01*
X55724598Y-133075000D01*
X55445587Y-133106437D01*
X55445575Y-133106439D01*
X55171821Y-133168921D01*
X55171819Y-133168922D01*
X54906782Y-133261662D01*
X54653799Y-133383492D01*
X54416043Y-133532884D01*
X54282741Y-133639187D01*
X55174874Y-134531320D01*
X55050680Y-134621554D01*
X54911554Y-134760680D01*
X54821320Y-134884874D01*
X53929187Y-133992741D01*
X53822884Y-134126043D01*
X53673492Y-134363799D01*
X53551662Y-134616782D01*
X53458922Y-134881819D01*
X53458921Y-134881821D01*
X53396439Y-135155575D01*
X53396437Y-135155587D01*
X53365000Y-135434598D01*
X50030500Y-135434598D01*
X50030500Y-129384568D01*
X53364500Y-129384568D01*
X53364500Y-129665431D01*
X53395942Y-129944494D01*
X53395945Y-129944512D01*
X53458439Y-130218317D01*
X53458443Y-130218329D01*
X53551200Y-130483411D01*
X53673053Y-130736442D01*
X53691005Y-130765012D01*
X53822477Y-130974248D01*
X53997584Y-131193825D01*
X54196175Y-131392416D01*
X54415752Y-131567523D01*
X54653555Y-131716945D01*
X54906592Y-131838801D01*
X55095026Y-131904737D01*
X55171670Y-131931556D01*
X55171682Y-131931560D01*
X55445491Y-131994055D01*
X55445497Y-131994055D01*
X55445505Y-131994057D01*
X55615107Y-132013166D01*
X55724569Y-132025499D01*
X55724572Y-132025500D01*
X55724575Y-132025500D01*
X56005428Y-132025500D01*
X56005429Y-132025499D01*
X56162385Y-132007815D01*
X56284494Y-131994057D01*
X56284499Y-131994056D01*
X56284509Y-131994055D01*
X56558318Y-131931560D01*
X56823408Y-131838801D01*
X57076445Y-131716945D01*
X57314248Y-131567523D01*
X57533825Y-131392416D01*
X57732416Y-131193825D01*
X57907523Y-130974248D01*
X58056945Y-130736445D01*
X58077135Y-130694518D01*
X58100945Y-130645079D01*
X58100946Y-130645077D01*
X58178796Y-130483419D01*
X58178797Y-130483416D01*
X58178801Y-130483408D01*
X58271560Y-130218318D01*
X58334055Y-129944509D01*
X58339337Y-129897635D01*
X58356899Y-129741758D01*
X58365500Y-129665425D01*
X58365500Y-129384575D01*
X58342717Y-129182365D01*
X58334057Y-129105505D01*
X58334054Y-129105487D01*
X58271560Y-128831682D01*
X58271556Y-128831670D01*
X58248465Y-128765680D01*
X58178801Y-128566592D01*
X58056945Y-128313555D01*
X57907523Y-128075752D01*
X57732416Y-127856175D01*
X57533825Y-127657584D01*
X57314248Y-127482477D01*
X57314246Y-127482476D01*
X57314244Y-127482474D01*
X57300440Y-127473800D01*
X57300439Y-127473800D01*
X57138640Y-127372135D01*
X60879500Y-127372135D01*
X60879500Y-129167870D01*
X60879501Y-129167876D01*
X60885908Y-129227483D01*
X60936202Y-129362328D01*
X60936206Y-129362335D01*
X61022452Y-129477544D01*
X61022455Y-129477547D01*
X61137664Y-129563793D01*
X61137671Y-129563797D01*
X61182618Y-129580561D01*
X61272517Y-129614091D01*
X61332127Y-129620500D01*
X61342685Y-129620499D01*
X61409723Y-129640179D01*
X61430372Y-129656818D01*
X62100591Y-130327037D01*
X62037007Y-130344075D01*
X61922993Y-130409901D01*
X61829901Y-130502993D01*
X61764075Y-130617007D01*
X61747037Y-130680591D01*
X61114728Y-130048282D01*
X61114727Y-130048282D01*
X61075380Y-130102439D01*
X60978904Y-130291782D01*
X60913242Y-130493869D01*
X60913242Y-130493872D01*
X60880000Y-130703753D01*
X60880000Y-130916246D01*
X60913242Y-131126127D01*
X60913242Y-131126130D01*
X60978904Y-131328217D01*
X61075375Y-131517550D01*
X61114728Y-131571716D01*
X61747037Y-130939408D01*
X61764075Y-131002993D01*
X61829901Y-131117007D01*
X61922993Y-131210099D01*
X62037007Y-131275925D01*
X62100590Y-131292962D01*
X61468282Y-131925269D01*
X61468282Y-131925270D01*
X61522452Y-131964626D01*
X61522451Y-131964626D01*
X61531495Y-131969234D01*
X61582292Y-132017208D01*
X61599087Y-132085029D01*
X61576550Y-132151164D01*
X61531499Y-132190202D01*
X61522182Y-132194949D01*
X61350213Y-132319890D01*
X61199890Y-132470213D01*
X61074951Y-132642179D01*
X60978444Y-132831585D01*
X60912753Y-133033760D01*
X60879500Y-133243713D01*
X60879500Y-133456286D01*
X60912163Y-133662517D01*
X60912754Y-133666243D01*
X60930914Y-133722135D01*
X60978444Y-133868414D01*
X61074951Y-134057820D01*
X61199890Y-134229786D01*
X61350213Y-134380109D01*
X61522182Y-134505050D01*
X61530946Y-134509516D01*
X61581742Y-134557491D01*
X61598536Y-134625312D01*
X61575998Y-134691447D01*
X61530946Y-134730484D01*
X61522182Y-134734949D01*
X61350213Y-134859890D01*
X61199890Y-135010213D01*
X61074951Y-135182179D01*
X60978444Y-135371585D01*
X60912753Y-135573760D01*
X60880123Y-135779778D01*
X60879500Y-135783713D01*
X60879500Y-135996287D01*
X60912754Y-136206243D01*
X60926203Y-136247636D01*
X60978444Y-136408414D01*
X61074951Y-136597820D01*
X61199890Y-136769786D01*
X61350213Y-136920109D01*
X61522182Y-137045050D01*
X61530946Y-137049516D01*
X61581742Y-137097491D01*
X61598536Y-137165312D01*
X61575998Y-137231447D01*
X61530946Y-137270484D01*
X61522182Y-137274949D01*
X61350213Y-137399890D01*
X61199890Y-137550213D01*
X61074951Y-137722179D01*
X60978444Y-137911585D01*
X60912753Y-138113760D01*
X60894621Y-138228242D01*
X60879500Y-138323713D01*
X60879500Y-138536287D01*
X60912754Y-138746243D01*
X60936788Y-138820213D01*
X60978444Y-138948414D01*
X61074951Y-139137820D01*
X61199890Y-139309786D01*
X61350213Y-139460109D01*
X61522179Y-139585048D01*
X61522181Y-139585049D01*
X61522184Y-139585051D01*
X61711588Y-139681557D01*
X61913757Y-139747246D01*
X62123713Y-139780500D01*
X62123714Y-139780500D01*
X62336286Y-139780500D01*
X62336287Y-139780500D01*
X62546243Y-139747246D01*
X62748412Y-139681557D01*
X62937816Y-139585051D01*
X62959789Y-139569086D01*
X63109786Y-139460109D01*
X63109788Y-139460106D01*
X63109792Y-139460104D01*
X63260104Y-139309792D01*
X63260106Y-139309788D01*
X63260109Y-139309786D01*
X63385048Y-139137820D01*
X63385047Y-139137820D01*
X63385051Y-139137816D01*
X63481557Y-138948412D01*
X63547246Y-138746243D01*
X63580500Y-138536287D01*
X63580500Y-138323713D01*
X63547246Y-138113757D01*
X63481557Y-137911588D01*
X63385051Y-137722184D01*
X63385049Y-137722181D01*
X63385048Y-137722179D01*
X63260109Y-137550213D01*
X63109786Y-137399890D01*
X62937820Y-137274951D01*
X62937115Y-137274591D01*
X62929054Y-137270485D01*
X62878259Y-137222512D01*
X62861463Y-137154692D01*
X62883999Y-137088556D01*
X62929054Y-137049515D01*
X62937816Y-137045051D01*
X62966851Y-137023956D01*
X63109786Y-136920109D01*
X63109788Y-136920106D01*
X63109792Y-136920104D01*
X63260104Y-136769792D01*
X63260106Y-136769788D01*
X63260109Y-136769786D01*
X63385048Y-136597820D01*
X63385047Y-136597820D01*
X63385051Y-136597816D01*
X63481557Y-136408412D01*
X63547246Y-136206243D01*
X63580500Y-135996287D01*
X63580500Y-135783713D01*
X63547246Y-135573757D01*
X63481557Y-135371588D01*
X63385051Y-135182184D01*
X63385049Y-135182181D01*
X63385048Y-135182179D01*
X63260109Y-135010213D01*
X63109786Y-134859890D01*
X62937820Y-134734951D01*
X62937115Y-134734591D01*
X62929054Y-134730485D01*
X62878259Y-134682512D01*
X62861463Y-134614692D01*
X62883999Y-134548556D01*
X62929054Y-134509515D01*
X62937816Y-134505051D01*
X62959789Y-134489086D01*
X63109786Y-134380109D01*
X63109788Y-134380106D01*
X63109792Y-134380104D01*
X63260104Y-134229792D01*
X63260106Y-134229788D01*
X63260109Y-134229786D01*
X63385048Y-134057820D01*
X63385047Y-134057820D01*
X63385051Y-134057816D01*
X63481557Y-133868412D01*
X63547246Y-133666243D01*
X63580500Y-133456287D01*
X63580500Y-133243713D01*
X63547246Y-133033757D01*
X63481557Y-132831588D01*
X63385051Y-132642184D01*
X63385049Y-132642181D01*
X63385048Y-132642179D01*
X63260109Y-132470213D01*
X63109786Y-132319890D01*
X62937817Y-132194949D01*
X62928504Y-132190204D01*
X62877707Y-132142230D01*
X62860912Y-132074409D01*
X62883449Y-132008274D01*
X62928507Y-131969232D01*
X62937555Y-131964622D01*
X62991716Y-131925270D01*
X62991717Y-131925270D01*
X62359408Y-131292962D01*
X62422993Y-131275925D01*
X62537007Y-131210099D01*
X62630099Y-131117007D01*
X62695925Y-131002993D01*
X62712962Y-130939408D01*
X63345270Y-131571717D01*
X63345270Y-131571716D01*
X63384622Y-131517554D01*
X63481095Y-131328217D01*
X63546757Y-131126130D01*
X63546757Y-131126127D01*
X63580000Y-130916246D01*
X63580000Y-130703753D01*
X63546757Y-130493872D01*
X63546757Y-130493869D01*
X63481095Y-130291782D01*
X63384624Y-130102449D01*
X63345270Y-130048282D01*
X63345269Y-130048282D01*
X62712962Y-130680590D01*
X62695925Y-130617007D01*
X62630099Y-130502993D01*
X62537007Y-130409901D01*
X62422993Y-130344075D01*
X62359409Y-130327037D01*
X63029627Y-129656818D01*
X63030845Y-129656153D01*
X77679500Y-129656153D01*
X77679500Y-129813846D01*
X77710261Y-129968489D01*
X77710264Y-129968501D01*
X77770602Y-130114172D01*
X77770609Y-130114185D01*
X77858210Y-130245288D01*
X77858213Y-130245292D01*
X77960240Y-130347319D01*
X77993725Y-130408642D01*
X77988741Y-130478334D01*
X77960240Y-130522681D01*
X77858213Y-130624707D01*
X77858210Y-130624711D01*
X77770609Y-130755814D01*
X77770602Y-130755827D01*
X77710264Y-130901498D01*
X77710261Y-130901510D01*
X77679500Y-131056153D01*
X77679500Y-131213846D01*
X77710261Y-131368489D01*
X77710264Y-131368501D01*
X77770602Y-131514172D01*
X77770609Y-131514185D01*
X77858210Y-131645288D01*
X77858213Y-131645292D01*
X77969707Y-131756786D01*
X77969711Y-131756789D01*
X78100814Y-131844390D01*
X78100827Y-131844397D01*
X78182538Y-131878242D01*
X78246503Y-131904737D01*
X78301831Y-131915742D01*
X78363740Y-131948126D01*
X78398315Y-132008841D01*
X78399256Y-132013166D01*
X78410261Y-132068492D01*
X78410264Y-132068501D01*
X78470602Y-132214172D01*
X78470609Y-132214185D01*
X78558210Y-132345288D01*
X78558213Y-132345292D01*
X78669707Y-132456786D01*
X78669711Y-132456789D01*
X78800814Y-132544390D01*
X78800827Y-132544397D01*
X78946498Y-132604735D01*
X78946503Y-132604737D01*
X79101153Y-132635499D01*
X79101156Y-132635500D01*
X79101158Y-132635500D01*
X79258844Y-132635500D01*
X79258845Y-132635499D01*
X79413497Y-132604737D01*
X79559179Y-132544394D01*
X79690289Y-132456789D01*
X79739127Y-132407951D01*
X79792319Y-132354760D01*
X79853642Y-132321275D01*
X79923334Y-132326259D01*
X79967681Y-132354760D01*
X80069707Y-132456786D01*
X80069711Y-132456789D01*
X80200814Y-132544390D01*
X80200827Y-132544397D01*
X80346498Y-132604735D01*
X80346503Y-132604737D01*
X80501153Y-132635499D01*
X80501156Y-132635500D01*
X80501158Y-132635500D01*
X80658844Y-132635500D01*
X80658845Y-132635499D01*
X80813497Y-132604737D01*
X80959179Y-132544394D01*
X81090289Y-132456789D01*
X81201789Y-132345289D01*
X81289394Y-132214179D01*
X81349737Y-132068497D01*
X81360743Y-132013166D01*
X81393125Y-131951258D01*
X81453841Y-131916683D01*
X81458118Y-131915752D01*
X81513497Y-131904737D01*
X81659179Y-131844394D01*
X81790289Y-131756789D01*
X81901789Y-131645289D01*
X81989394Y-131514179D01*
X82049737Y-131368497D01*
X82080500Y-131213842D01*
X82080500Y-131056158D01*
X82080500Y-131056155D01*
X82080499Y-131056153D01*
X82064207Y-130974248D01*
X82049737Y-130901503D01*
X82039101Y-130875826D01*
X81989397Y-130755827D01*
X81989390Y-130755814D01*
X81901789Y-130624711D01*
X81901786Y-130624707D01*
X81799760Y-130522681D01*
X81766275Y-130461358D01*
X81771259Y-130391666D01*
X81799760Y-130347319D01*
X81901786Y-130245292D01*
X81901789Y-130245289D01*
X81989394Y-130114179D01*
X82049737Y-129968497D01*
X82080500Y-129813842D01*
X82080500Y-129656158D01*
X82080500Y-129656155D01*
X82080499Y-129656153D01*
X82071753Y-129612185D01*
X82049737Y-129501503D01*
X82020028Y-129429778D01*
X81989397Y-129355827D01*
X81989390Y-129355814D01*
X81901789Y-129224711D01*
X81901786Y-129224707D01*
X81790292Y-129113213D01*
X81790288Y-129113210D01*
X81659185Y-129025609D01*
X81659172Y-129025602D01*
X81513501Y-128965264D01*
X81513492Y-128965261D01*
X81458166Y-128954256D01*
X81396256Y-128921870D01*
X81361682Y-128861154D01*
X81360750Y-128856874D01*
X81349737Y-128801503D01*
X81334651Y-128765082D01*
X81289397Y-128655827D01*
X81289390Y-128655814D01*
X81201789Y-128524711D01*
X81201786Y-128524707D01*
X81090292Y-128413213D01*
X81090288Y-128413210D01*
X80959185Y-128325609D01*
X80959172Y-128325602D01*
X80813501Y-128265264D01*
X80813489Y-128265261D01*
X80658845Y-128234500D01*
X80658842Y-128234500D01*
X80501158Y-128234500D01*
X80501155Y-128234500D01*
X80346510Y-128265261D01*
X80346498Y-128265264D01*
X80200827Y-128325602D01*
X80200814Y-128325609D01*
X80069711Y-128413210D01*
X80069707Y-128413213D01*
X79967681Y-128515240D01*
X79906358Y-128548725D01*
X79836666Y-128543741D01*
X79792319Y-128515240D01*
X79690292Y-128413213D01*
X79690288Y-128413210D01*
X79559185Y-128325609D01*
X79559172Y-128325602D01*
X79413501Y-128265264D01*
X79413489Y-128265261D01*
X79258845Y-128234500D01*
X79258842Y-128234500D01*
X79101158Y-128234500D01*
X79101155Y-128234500D01*
X78946510Y-128265261D01*
X78946498Y-128265264D01*
X78800827Y-128325602D01*
X78800814Y-128325609D01*
X78669711Y-128413210D01*
X78669707Y-128413213D01*
X78558213Y-128524707D01*
X78558210Y-128524711D01*
X78470609Y-128655814D01*
X78470602Y-128655827D01*
X78410264Y-128801498D01*
X78410262Y-128801505D01*
X78399256Y-128856833D01*
X78366870Y-128918743D01*
X78306153Y-128953316D01*
X78301833Y-128954256D01*
X78246505Y-128965262D01*
X78246498Y-128965264D01*
X78100827Y-129025602D01*
X78100814Y-129025609D01*
X77969711Y-129113210D01*
X77969707Y-129113213D01*
X77858213Y-129224707D01*
X77858210Y-129224711D01*
X77770609Y-129355814D01*
X77770602Y-129355827D01*
X77710264Y-129501498D01*
X77710261Y-129501510D01*
X77679500Y-129656153D01*
X63030845Y-129656153D01*
X63090950Y-129623333D01*
X63117307Y-129620499D01*
X63127872Y-129620499D01*
X63187483Y-129614091D01*
X63322331Y-129563796D01*
X63437546Y-129477546D01*
X63523796Y-129362331D01*
X63574091Y-129227483D01*
X63580500Y-129167873D01*
X63580499Y-127372128D01*
X63574091Y-127312517D01*
X63536302Y-127211200D01*
X63523797Y-127177671D01*
X63523793Y-127177664D01*
X63437547Y-127062455D01*
X63437544Y-127062452D01*
X63322335Y-126976206D01*
X63322328Y-126976202D01*
X63187482Y-126925908D01*
X63187483Y-126925908D01*
X63127883Y-126919501D01*
X63127881Y-126919500D01*
X63127873Y-126919500D01*
X63127864Y-126919500D01*
X61332129Y-126919500D01*
X61332123Y-126919501D01*
X61272516Y-126925908D01*
X61137671Y-126976202D01*
X61137664Y-126976206D01*
X61022455Y-127062452D01*
X61022452Y-127062455D01*
X60936206Y-127177664D01*
X60936202Y-127177671D01*
X60885908Y-127312517D01*
X60881058Y-127357635D01*
X60879501Y-127372123D01*
X60879500Y-127372135D01*
X57138640Y-127372135D01*
X57076442Y-127333053D01*
X56823411Y-127211200D01*
X56558329Y-127118443D01*
X56558317Y-127118439D01*
X56284512Y-127055945D01*
X56284494Y-127055942D01*
X56005431Y-127024500D01*
X56005425Y-127024500D01*
X55724575Y-127024500D01*
X55724568Y-127024500D01*
X55445505Y-127055942D01*
X55445487Y-127055945D01*
X55171682Y-127118439D01*
X55171670Y-127118443D01*
X54906588Y-127211200D01*
X54653557Y-127333053D01*
X54415753Y-127482476D01*
X54196175Y-127657583D01*
X53997583Y-127856175D01*
X53822476Y-128075753D01*
X53673053Y-128313557D01*
X53551200Y-128566588D01*
X53458443Y-128831670D01*
X53458439Y-128831682D01*
X53395945Y-129105487D01*
X53395942Y-129105505D01*
X53364500Y-129384568D01*
X50030500Y-129384568D01*
X50030500Y-121249106D01*
X56027500Y-121249106D01*
X56027500Y-121574893D01*
X56063974Y-121898604D01*
X56063976Y-121898620D01*
X56136467Y-122216226D01*
X56136471Y-122216238D01*
X56244066Y-122523725D01*
X56385413Y-122817234D01*
X56417238Y-122867883D01*
X56558739Y-123093081D01*
X56694877Y-123263793D01*
X56740099Y-123320500D01*
X56761857Y-123347783D01*
X56992217Y-123578143D01*
X57246919Y-123781261D01*
X57522763Y-123954585D01*
X57816278Y-124095935D01*
X58047217Y-124176744D01*
X58123761Y-124203528D01*
X58123773Y-124203532D01*
X58441383Y-124276024D01*
X58765106Y-124312499D01*
X58765107Y-124312500D01*
X58765111Y-124312500D01*
X59090893Y-124312500D01*
X59090893Y-124312499D01*
X59414617Y-124276024D01*
X59732227Y-124203532D01*
X60039722Y-124095935D01*
X60333237Y-123954585D01*
X60609081Y-123781261D01*
X60863783Y-123578143D01*
X61094143Y-123347783D01*
X61297261Y-123093081D01*
X61470585Y-122817237D01*
X61611935Y-122523722D01*
X61719532Y-122216227D01*
X61792024Y-121898617D01*
X61828500Y-121574889D01*
X61828500Y-121249111D01*
X61818999Y-121164793D01*
X61798482Y-120982690D01*
X61797293Y-120972135D01*
X96389500Y-120972135D01*
X96389500Y-122867870D01*
X96389501Y-122867876D01*
X96395908Y-122927483D01*
X96446202Y-123062328D01*
X96446206Y-123062335D01*
X96532452Y-123177544D01*
X96532455Y-123177547D01*
X96647664Y-123263793D01*
X96647671Y-123263797D01*
X96727580Y-123293601D01*
X96783514Y-123335472D01*
X96807931Y-123400936D01*
X96793080Y-123469209D01*
X96771929Y-123497463D01*
X96721756Y-123547636D01*
X96721752Y-123547641D01*
X96592187Y-123725974D01*
X96492104Y-123922393D01*
X96492103Y-123922396D01*
X96423985Y-124132047D01*
X96389500Y-124349778D01*
X96389500Y-124570221D01*
X96423985Y-124787952D01*
X96492103Y-124997603D01*
X96492104Y-124997606D01*
X96560122Y-125131096D01*
X96591355Y-125192394D01*
X96592187Y-125194025D01*
X96721752Y-125372358D01*
X96721756Y-125372363D01*
X96877636Y-125528243D01*
X96877641Y-125528247D01*
X97017254Y-125629682D01*
X97059920Y-125685012D01*
X97065899Y-125754625D01*
X97033293Y-125816420D01*
X97017254Y-125830318D01*
X96877641Y-125931752D01*
X96877636Y-125931756D01*
X96721756Y-126087636D01*
X96721752Y-126087641D01*
X96592187Y-126265974D01*
X96492104Y-126462393D01*
X96492103Y-126462396D01*
X96423985Y-126672047D01*
X96423985Y-126672049D01*
X96389500Y-126889778D01*
X96389500Y-127110222D01*
X96390802Y-127118440D01*
X96423985Y-127327952D01*
X96492103Y-127537603D01*
X96492104Y-127537606D01*
X96553237Y-127657583D01*
X96591355Y-127732394D01*
X96592187Y-127734025D01*
X96721752Y-127912358D01*
X96721756Y-127912363D01*
X96877636Y-128068243D01*
X96877641Y-128068247D01*
X97017254Y-128169682D01*
X97059920Y-128225012D01*
X97065899Y-128294625D01*
X97033293Y-128356420D01*
X97017254Y-128370318D01*
X96877641Y-128471752D01*
X96877636Y-128471756D01*
X96721756Y-128627636D01*
X96721752Y-128627641D01*
X96592187Y-128805974D01*
X96492104Y-129002393D01*
X96492103Y-129002396D01*
X96423985Y-129212047D01*
X96400182Y-129362335D01*
X96389500Y-129429778D01*
X96389500Y-129650222D01*
X96390440Y-129656155D01*
X96423985Y-129867952D01*
X96492103Y-130077603D01*
X96492104Y-130077606D01*
X96560122Y-130211096D01*
X96591355Y-130272394D01*
X96592187Y-130274025D01*
X96721752Y-130452358D01*
X96721756Y-130452363D01*
X96877636Y-130608243D01*
X96877641Y-130608247D01*
X97017254Y-130709682D01*
X97059920Y-130765012D01*
X97065899Y-130834625D01*
X97033293Y-130896420D01*
X97017254Y-130910318D01*
X96877641Y-131011752D01*
X96877636Y-131011756D01*
X96721756Y-131167636D01*
X96721752Y-131167641D01*
X96592187Y-131345974D01*
X96492104Y-131542393D01*
X96492103Y-131542396D01*
X96423985Y-131752047D01*
X96396549Y-131925270D01*
X96389500Y-131969778D01*
X96389500Y-132190222D01*
X96395521Y-132228238D01*
X96423985Y-132407952D01*
X96492103Y-132617603D01*
X96492104Y-132617606D01*
X96560122Y-132751096D01*
X96591355Y-132812394D01*
X96592187Y-132814025D01*
X96721752Y-132992358D01*
X96721756Y-132992363D01*
X96877636Y-133148243D01*
X96877641Y-133148247D01*
X97017254Y-133249682D01*
X97059920Y-133305012D01*
X97065899Y-133374625D01*
X97033293Y-133436420D01*
X97017254Y-133450318D01*
X96877641Y-133551752D01*
X96877636Y-133551756D01*
X96721756Y-133707636D01*
X96721752Y-133707641D01*
X96592187Y-133885974D01*
X96492104Y-134082393D01*
X96492103Y-134082396D01*
X96423985Y-134292047D01*
X96404261Y-134416580D01*
X96389500Y-134509778D01*
X96389500Y-134730222D01*
X96389542Y-134730486D01*
X96423985Y-134947952D01*
X96492103Y-135157603D01*
X96492104Y-135157606D01*
X96524633Y-135221446D01*
X96591355Y-135352394D01*
X96592187Y-135354025D01*
X96721752Y-135532358D01*
X96721756Y-135532363D01*
X96877636Y-135688243D01*
X96877641Y-135688247D01*
X97017254Y-135789682D01*
X97059920Y-135845012D01*
X97065899Y-135914625D01*
X97033293Y-135976420D01*
X97017254Y-135990318D01*
X96877641Y-136091752D01*
X96877636Y-136091756D01*
X96721756Y-136247636D01*
X96721752Y-136247641D01*
X96592187Y-136425974D01*
X96492104Y-136622393D01*
X96492103Y-136622396D01*
X96423985Y-136832047D01*
X96404590Y-136954502D01*
X96389500Y-137049778D01*
X96389500Y-137270222D01*
X96389542Y-137270486D01*
X96423985Y-137487952D01*
X96492103Y-137697603D01*
X96492104Y-137697606D01*
X96527212Y-137766507D01*
X96591355Y-137892394D01*
X96592187Y-137894025D01*
X96721752Y-138072358D01*
X96721756Y-138072363D01*
X96877636Y-138228243D01*
X96877641Y-138228247D01*
X97017254Y-138329682D01*
X97059920Y-138385012D01*
X97065899Y-138454625D01*
X97033293Y-138516420D01*
X97017254Y-138530318D01*
X96877641Y-138631752D01*
X96877636Y-138631756D01*
X96721756Y-138787636D01*
X96721752Y-138787641D01*
X96592187Y-138965974D01*
X96492104Y-139162393D01*
X96492103Y-139162396D01*
X96423985Y-139372047D01*
X96389500Y-139589778D01*
X96389500Y-139810221D01*
X96423985Y-140027952D01*
X96492103Y-140237603D01*
X96492104Y-140237606D01*
X96560122Y-140371096D01*
X96578834Y-140407820D01*
X96592187Y-140434025D01*
X96721752Y-140612358D01*
X96721756Y-140612363D01*
X96877636Y-140768243D01*
X96877641Y-140768247D01*
X96997114Y-140855048D01*
X97055978Y-140897815D01*
X97161448Y-140951555D01*
X97252393Y-140997895D01*
X97252396Y-140997896D01*
X97311951Y-141017246D01*
X97462049Y-141066015D01*
X97679778Y-141100500D01*
X97679779Y-141100500D01*
X97900221Y-141100500D01*
X97900222Y-141100500D01*
X98117951Y-141066015D01*
X98327606Y-140997895D01*
X98524022Y-140897815D01*
X98702365Y-140768242D01*
X98858242Y-140612365D01*
X98987815Y-140434022D01*
X99087895Y-140237606D01*
X99156015Y-140027951D01*
X99190500Y-139810222D01*
X99190500Y-139589778D01*
X99156015Y-139372049D01*
X99121955Y-139267221D01*
X99087896Y-139162396D01*
X99087895Y-139162393D01*
X99053237Y-139094375D01*
X98987815Y-138965978D01*
X98971260Y-138943192D01*
X98858247Y-138787641D01*
X98858243Y-138787636D01*
X98702363Y-138631756D01*
X98702358Y-138631752D01*
X98562745Y-138530318D01*
X98520079Y-138474989D01*
X98514100Y-138405375D01*
X98546705Y-138343580D01*
X98562745Y-138329682D01*
X98702358Y-138228247D01*
X98702356Y-138228247D01*
X98702365Y-138228242D01*
X98858242Y-138072365D01*
X98987815Y-137894022D01*
X99087895Y-137697606D01*
X99156015Y-137487951D01*
X99190500Y-137270222D01*
X99190500Y-137049778D01*
X99156015Y-136832049D01*
X99100114Y-136660000D01*
X99087896Y-136622396D01*
X99087895Y-136622393D01*
X99053237Y-136554375D01*
X98987815Y-136425978D01*
X98873169Y-136268180D01*
X98858247Y-136247641D01*
X98858243Y-136247636D01*
X98702363Y-136091756D01*
X98702358Y-136091752D01*
X98562745Y-135990318D01*
X98520079Y-135934989D01*
X98514100Y-135865375D01*
X98546705Y-135803580D01*
X98562745Y-135789682D01*
X98702358Y-135688247D01*
X98702356Y-135688247D01*
X98702365Y-135688242D01*
X98858242Y-135532365D01*
X98987815Y-135354022D01*
X99087895Y-135157606D01*
X99156015Y-134947951D01*
X99190500Y-134730222D01*
X99190500Y-134509778D01*
X99156015Y-134292049D01*
X99087895Y-134082394D01*
X99087895Y-134082393D01*
X99042214Y-133992741D01*
X98987815Y-133885978D01*
X98868777Y-133722135D01*
X98858247Y-133707641D01*
X98858243Y-133707636D01*
X98702363Y-133551756D01*
X98702358Y-133551752D01*
X98562745Y-133450318D01*
X98520079Y-133394989D01*
X98514100Y-133325375D01*
X98546705Y-133263580D01*
X98562745Y-133249682D01*
X98702358Y-133148247D01*
X98702356Y-133148247D01*
X98702365Y-133148242D01*
X98858242Y-132992365D01*
X98987815Y-132814022D01*
X99087895Y-132617606D01*
X99156015Y-132407951D01*
X99190500Y-132190222D01*
X99190500Y-131969778D01*
X99156015Y-131752049D01*
X99121327Y-131645288D01*
X99087896Y-131542396D01*
X99087895Y-131542393D01*
X99053237Y-131474375D01*
X98987815Y-131345978D01*
X98936919Y-131275925D01*
X98858247Y-131167641D01*
X98858243Y-131167636D01*
X98702363Y-131011756D01*
X98702358Y-131011752D01*
X98562745Y-130910318D01*
X98520079Y-130854989D01*
X98514100Y-130785375D01*
X98546705Y-130723580D01*
X98562745Y-130709682D01*
X98702358Y-130608247D01*
X98702356Y-130608247D01*
X98702365Y-130608242D01*
X98858242Y-130452365D01*
X98987815Y-130274022D01*
X99087895Y-130077606D01*
X99156015Y-129867951D01*
X99190500Y-129650222D01*
X99190500Y-129429778D01*
X99156015Y-129212049D01*
X99087895Y-129002394D01*
X99087895Y-129002393D01*
X99053237Y-128934375D01*
X98987815Y-128805978D01*
X98878725Y-128655827D01*
X98858247Y-128627641D01*
X98858243Y-128627636D01*
X98702363Y-128471756D01*
X98702358Y-128471752D01*
X98562745Y-128370318D01*
X98520079Y-128314989D01*
X98514100Y-128245375D01*
X98546705Y-128183580D01*
X98562745Y-128169682D01*
X98702358Y-128068247D01*
X98702356Y-128068247D01*
X98702365Y-128068242D01*
X98858242Y-127912365D01*
X98987815Y-127734022D01*
X99087895Y-127537606D01*
X99156015Y-127327951D01*
X99190500Y-127110222D01*
X99190500Y-126889778D01*
X99156015Y-126672049D01*
X99087895Y-126462394D01*
X99087895Y-126462393D01*
X99053237Y-126394375D01*
X98987815Y-126265978D01*
X98971260Y-126243192D01*
X98858247Y-126087641D01*
X98858243Y-126087636D01*
X98702363Y-125931756D01*
X98702358Y-125931752D01*
X98562745Y-125830318D01*
X98520079Y-125774989D01*
X98514100Y-125705375D01*
X98546705Y-125643580D01*
X98562745Y-125629682D01*
X98702358Y-125528247D01*
X98702356Y-125528247D01*
X98702365Y-125528242D01*
X98858242Y-125372365D01*
X98987815Y-125194022D01*
X99087895Y-124997606D01*
X99156015Y-124787951D01*
X99190500Y-124570222D01*
X99190500Y-124349778D01*
X99156015Y-124132049D01*
X99098355Y-123954586D01*
X99087896Y-123922396D01*
X99087895Y-123922393D01*
X99015983Y-123781261D01*
X98987815Y-123725978D01*
X98971260Y-123703192D01*
X98858247Y-123547641D01*
X98858243Y-123547636D01*
X98808071Y-123497464D01*
X98774586Y-123436141D01*
X98779570Y-123366449D01*
X98821442Y-123310516D01*
X98852420Y-123293601D01*
X98932326Y-123263798D01*
X98932326Y-123263797D01*
X98932331Y-123263796D01*
X99047546Y-123177546D01*
X99120735Y-123079778D01*
X101469500Y-123079778D01*
X101469500Y-123300222D01*
X101471697Y-123314091D01*
X101503985Y-123517952D01*
X101572103Y-123727603D01*
X101572104Y-123727606D01*
X101640122Y-123861096D01*
X101671355Y-123922394D01*
X101672187Y-123924025D01*
X101801752Y-124102358D01*
X101801756Y-124102363D01*
X101957636Y-124258243D01*
X101957641Y-124258247D01*
X102097254Y-124359682D01*
X102139920Y-124415012D01*
X102145899Y-124484625D01*
X102113293Y-124546420D01*
X102097254Y-124560318D01*
X101957641Y-124661752D01*
X101957636Y-124661756D01*
X101801756Y-124817636D01*
X101801752Y-124817641D01*
X101672187Y-124995974D01*
X101572104Y-125192393D01*
X101572103Y-125192396D01*
X101503985Y-125402047D01*
X101469500Y-125619778D01*
X101469500Y-125840221D01*
X101503985Y-126057952D01*
X101572103Y-126267603D01*
X101572104Y-126267606D01*
X101640122Y-126401096D01*
X101671355Y-126462394D01*
X101672187Y-126464025D01*
X101801752Y-126642358D01*
X101801756Y-126642363D01*
X101957636Y-126798243D01*
X101957641Y-126798247D01*
X102097254Y-126899682D01*
X102139920Y-126955012D01*
X102145899Y-127024625D01*
X102113293Y-127086420D01*
X102097254Y-127100318D01*
X101957641Y-127201752D01*
X101957636Y-127201756D01*
X101801756Y-127357636D01*
X101801752Y-127357641D01*
X101672187Y-127535974D01*
X101572104Y-127732393D01*
X101572103Y-127732396D01*
X101503985Y-127942047D01*
X101469500Y-128159778D01*
X101469500Y-128380221D01*
X101503985Y-128597952D01*
X101572103Y-128807603D01*
X101572104Y-128807606D01*
X101599389Y-128861154D01*
X101671355Y-129002394D01*
X101672187Y-129004025D01*
X101801752Y-129182358D01*
X101801756Y-129182363D01*
X101957636Y-129338243D01*
X101957641Y-129338247D01*
X102097254Y-129439682D01*
X102139920Y-129495012D01*
X102145899Y-129564625D01*
X102113293Y-129626420D01*
X102097254Y-129640318D01*
X101957641Y-129741752D01*
X101957636Y-129741756D01*
X101801756Y-129897636D01*
X101801752Y-129897641D01*
X101672187Y-130075974D01*
X101572104Y-130272393D01*
X101572103Y-130272396D01*
X101503985Y-130482047D01*
X101469500Y-130699778D01*
X101469500Y-130920221D01*
X101503985Y-131137952D01*
X101572103Y-131347603D01*
X101572104Y-131347606D01*
X101640122Y-131481096D01*
X101671355Y-131542394D01*
X101672187Y-131544025D01*
X101801752Y-131722358D01*
X101801756Y-131722363D01*
X101957636Y-131878243D01*
X101957641Y-131878247D01*
X102097254Y-131979682D01*
X102139920Y-132035012D01*
X102145899Y-132104625D01*
X102113293Y-132166420D01*
X102097254Y-132180318D01*
X101957641Y-132281752D01*
X101957636Y-132281756D01*
X101801756Y-132437636D01*
X101801752Y-132437641D01*
X101672187Y-132615974D01*
X101572104Y-132812393D01*
X101572103Y-132812396D01*
X101503985Y-133022047D01*
X101469500Y-133239778D01*
X101469500Y-133460221D01*
X101503985Y-133677952D01*
X101572103Y-133887603D01*
X101572104Y-133887606D01*
X101640122Y-134021096D01*
X101671355Y-134082394D01*
X101672187Y-134084025D01*
X101801752Y-134262358D01*
X101801756Y-134262363D01*
X101957636Y-134418243D01*
X101957641Y-134418247D01*
X102097254Y-134519682D01*
X102139920Y-134575012D01*
X102145899Y-134644625D01*
X102113293Y-134706420D01*
X102097254Y-134720318D01*
X101957641Y-134821752D01*
X101957636Y-134821756D01*
X101801756Y-134977636D01*
X101801752Y-134977641D01*
X101672187Y-135155974D01*
X101572104Y-135352393D01*
X101572103Y-135352396D01*
X101503985Y-135562047D01*
X101469500Y-135779778D01*
X101469500Y-136000221D01*
X101503985Y-136217952D01*
X101572103Y-136427603D01*
X101572104Y-136427606D01*
X101623486Y-136528446D01*
X101671355Y-136622394D01*
X101672187Y-136624025D01*
X101801752Y-136802358D01*
X101801756Y-136802363D01*
X101957636Y-136958243D01*
X101957641Y-136958247D01*
X102097254Y-137059682D01*
X102139920Y-137115012D01*
X102145899Y-137184625D01*
X102113293Y-137246420D01*
X102097254Y-137260318D01*
X101957641Y-137361752D01*
X101957636Y-137361756D01*
X101801756Y-137517636D01*
X101801752Y-137517641D01*
X101672187Y-137695974D01*
X101572104Y-137892393D01*
X101572103Y-137892396D01*
X101503985Y-138102047D01*
X101469500Y-138319778D01*
X101469500Y-138540221D01*
X101503985Y-138757952D01*
X101572103Y-138967603D01*
X101572104Y-138967606D01*
X101640122Y-139101096D01*
X101671355Y-139162394D01*
X101672187Y-139164025D01*
X101801752Y-139342358D01*
X101801756Y-139342363D01*
X101957636Y-139498243D01*
X101957641Y-139498247D01*
X102077114Y-139585048D01*
X102135978Y-139627815D01*
X102241448Y-139681555D01*
X102332393Y-139727895D01*
X102332396Y-139727896D01*
X102391951Y-139747246D01*
X102542049Y-139796015D01*
X102759778Y-139830500D01*
X102759779Y-139830500D01*
X102980221Y-139830500D01*
X102980222Y-139830500D01*
X103197951Y-139796015D01*
X103407606Y-139727895D01*
X103604022Y-139627815D01*
X103782365Y-139498242D01*
X103938242Y-139342365D01*
X104067815Y-139164022D01*
X104167895Y-138967606D01*
X104236015Y-138757951D01*
X104270500Y-138540222D01*
X104270500Y-138319778D01*
X104236015Y-138102049D01*
X104196709Y-137981077D01*
X104167896Y-137892396D01*
X104167895Y-137892393D01*
X104133237Y-137824375D01*
X104067815Y-137695978D01*
X103969094Y-137560099D01*
X103938247Y-137517641D01*
X103938243Y-137517636D01*
X103782363Y-137361756D01*
X103782358Y-137361752D01*
X103642745Y-137260318D01*
X103600079Y-137204989D01*
X103594100Y-137135375D01*
X103626705Y-137073580D01*
X103642280Y-137060021D01*
X103642546Y-137059825D01*
X103782365Y-136958242D01*
X103938242Y-136802365D01*
X104067815Y-136624022D01*
X104167895Y-136427606D01*
X104236015Y-136217951D01*
X104270500Y-136000222D01*
X104270500Y-135779778D01*
X104236015Y-135562049D01*
X104194604Y-135434598D01*
X104167896Y-135352396D01*
X104167895Y-135352393D01*
X104132175Y-135282291D01*
X104067815Y-135155978D01*
X104051260Y-135133192D01*
X103938247Y-134977641D01*
X103938243Y-134977636D01*
X103782363Y-134821756D01*
X103782358Y-134821752D01*
X103642745Y-134720318D01*
X103600079Y-134664989D01*
X103594100Y-134595375D01*
X103626705Y-134533580D01*
X103642745Y-134519682D01*
X103782358Y-134418247D01*
X103782356Y-134418247D01*
X103782365Y-134418242D01*
X103938242Y-134262365D01*
X104067815Y-134084022D01*
X104167895Y-133887606D01*
X104221659Y-133722135D01*
X112378000Y-133722135D01*
X112378000Y-135517870D01*
X112378001Y-135517876D01*
X112384408Y-135577483D01*
X112434702Y-135712328D01*
X112434706Y-135712335D01*
X112520952Y-135827544D01*
X112520955Y-135827547D01*
X112636164Y-135913793D01*
X112636171Y-135913797D01*
X112675737Y-135928554D01*
X112771017Y-135964091D01*
X112830627Y-135970500D01*
X112841185Y-135970499D01*
X112908223Y-135990179D01*
X112928872Y-136006818D01*
X113599091Y-136677037D01*
X113535507Y-136694075D01*
X113421493Y-136759901D01*
X113328401Y-136852993D01*
X113262575Y-136967007D01*
X113245537Y-137030591D01*
X112613228Y-136398282D01*
X112613227Y-136398282D01*
X112573880Y-136452439D01*
X112477404Y-136641782D01*
X112411742Y-136843869D01*
X112411742Y-136843872D01*
X112378500Y-137053753D01*
X112378500Y-137266246D01*
X112411742Y-137476127D01*
X112411742Y-137476130D01*
X112477404Y-137678217D01*
X112573875Y-137867550D01*
X112613228Y-137921716D01*
X113245537Y-137289408D01*
X113262575Y-137352993D01*
X113328401Y-137467007D01*
X113421493Y-137560099D01*
X113535507Y-137625925D01*
X113599090Y-137642962D01*
X112966782Y-138275269D01*
X112966782Y-138275270D01*
X113020952Y-138314626D01*
X113020951Y-138314626D01*
X113029995Y-138319234D01*
X113080792Y-138367208D01*
X113097587Y-138435029D01*
X113075050Y-138501164D01*
X113029999Y-138540202D01*
X113020682Y-138544949D01*
X112848713Y-138669890D01*
X112698390Y-138820213D01*
X112573451Y-138992179D01*
X112476944Y-139181585D01*
X112411253Y-139383760D01*
X112378000Y-139593713D01*
X112378000Y-139806286D01*
X112411253Y-140016239D01*
X112476944Y-140218414D01*
X112573451Y-140407820D01*
X112698390Y-140579786D01*
X112848713Y-140730109D01*
X113020679Y-140855048D01*
X113020681Y-140855049D01*
X113020684Y-140855051D01*
X113210088Y-140951557D01*
X113412257Y-141017246D01*
X113622213Y-141050500D01*
X113622214Y-141050500D01*
X113834786Y-141050500D01*
X113834787Y-141050500D01*
X114044743Y-141017246D01*
X114246912Y-140951557D01*
X114436316Y-140855051D01*
X114458289Y-140839086D01*
X114608286Y-140730109D01*
X114608288Y-140730106D01*
X114608292Y-140730104D01*
X114758604Y-140579792D01*
X114758606Y-140579788D01*
X114758609Y-140579786D01*
X114883548Y-140407820D01*
X114883547Y-140407820D01*
X114883551Y-140407816D01*
X114980057Y-140218412D01*
X115045746Y-140016243D01*
X115079000Y-139806287D01*
X115079000Y-139593713D01*
X115045746Y-139383757D01*
X114980057Y-139181588D01*
X114883551Y-138992184D01*
X114883549Y-138992181D01*
X114883548Y-138992179D01*
X114758609Y-138820213D01*
X114608286Y-138669890D01*
X114436317Y-138544949D01*
X114427004Y-138540204D01*
X114376207Y-138492230D01*
X114359412Y-138424409D01*
X114381949Y-138358274D01*
X114427007Y-138319232D01*
X114436055Y-138314622D01*
X114490216Y-138275270D01*
X114490217Y-138275270D01*
X113857908Y-137642962D01*
X113921493Y-137625925D01*
X114035507Y-137560099D01*
X114128599Y-137467007D01*
X114194425Y-137352993D01*
X114211462Y-137289409D01*
X114843770Y-137921717D01*
X114843770Y-137921716D01*
X114883122Y-137867554D01*
X114979595Y-137678217D01*
X115045257Y-137476130D01*
X115045257Y-137476127D01*
X115078500Y-137266246D01*
X115078500Y-137053753D01*
X115045257Y-136843872D01*
X115045257Y-136843869D01*
X114979595Y-136641782D01*
X114883124Y-136452449D01*
X114843770Y-136398282D01*
X114843769Y-136398282D01*
X114211462Y-137030590D01*
X114194425Y-136967007D01*
X114128599Y-136852993D01*
X114035507Y-136759901D01*
X113921493Y-136694075D01*
X113857909Y-136677037D01*
X114528127Y-136006818D01*
X114589450Y-135973333D01*
X114615807Y-135970499D01*
X114626372Y-135970499D01*
X114685983Y-135964091D01*
X114820831Y-135913796D01*
X114936046Y-135827546D01*
X115022296Y-135712331D01*
X115072591Y-135577483D01*
X115079000Y-135517873D01*
X115078999Y-133722128D01*
X115072591Y-133662517D01*
X115063889Y-133639187D01*
X115022297Y-133527671D01*
X115022293Y-133527664D01*
X114936047Y-133412455D01*
X114936044Y-133412452D01*
X114820835Y-133326206D01*
X114820828Y-133326202D01*
X114685982Y-133275908D01*
X114685983Y-133275908D01*
X114626383Y-133269501D01*
X114626381Y-133269500D01*
X114626373Y-133269500D01*
X114626364Y-133269500D01*
X112830629Y-133269500D01*
X112830623Y-133269501D01*
X112771016Y-133275908D01*
X112636171Y-133326202D01*
X112636164Y-133326206D01*
X112520955Y-133412452D01*
X112520952Y-133412455D01*
X112434706Y-133527664D01*
X112434702Y-133527671D01*
X112384408Y-133662517D01*
X112379558Y-133707635D01*
X112378001Y-133722123D01*
X112378000Y-133722135D01*
X104221659Y-133722135D01*
X104221665Y-133722116D01*
X104235191Y-133680488D01*
X104235449Y-133679692D01*
X104236015Y-133677951D01*
X104270500Y-133460222D01*
X104270500Y-133239778D01*
X104236015Y-133022049D01*
X104201955Y-132917221D01*
X104167896Y-132812396D01*
X104167895Y-132812393D01*
X104133237Y-132744375D01*
X104067815Y-132615978D01*
X104015809Y-132544397D01*
X103938247Y-132437641D01*
X103938243Y-132437636D01*
X103782363Y-132281756D01*
X103782358Y-132281752D01*
X103642745Y-132180318D01*
X103600079Y-132124989D01*
X103594100Y-132055375D01*
X103626705Y-131993580D01*
X103642745Y-131979682D01*
X103782358Y-131878247D01*
X103782356Y-131878247D01*
X103782365Y-131878242D01*
X103938242Y-131722365D01*
X104067815Y-131544022D01*
X104167895Y-131347606D01*
X104236015Y-131137951D01*
X104270500Y-130920222D01*
X104270500Y-130699778D01*
X104236015Y-130482049D01*
X104180114Y-130310000D01*
X104167896Y-130272396D01*
X104167895Y-130272393D01*
X104133237Y-130204375D01*
X104067815Y-130075978D01*
X103972287Y-129944494D01*
X103938247Y-129897641D01*
X103938243Y-129897636D01*
X103782363Y-129741756D01*
X103782358Y-129741752D01*
X103642745Y-129640318D01*
X103600079Y-129584989D01*
X103594100Y-129515375D01*
X103626705Y-129453580D01*
X103642745Y-129439682D01*
X103782358Y-129338247D01*
X103782356Y-129338247D01*
X103782365Y-129338242D01*
X103938242Y-129182365D01*
X104067815Y-129004022D01*
X104167895Y-128807606D01*
X104236015Y-128597951D01*
X104270500Y-128380222D01*
X104270500Y-128159778D01*
X104236015Y-127942049D01*
X104167895Y-127732394D01*
X104167895Y-127732393D01*
X104129776Y-127657583D01*
X104067815Y-127535978D01*
X104051260Y-127513192D01*
X103938247Y-127357641D01*
X103938243Y-127357636D01*
X103782363Y-127201756D01*
X103782358Y-127201752D01*
X103642745Y-127100318D01*
X103600079Y-127044989D01*
X103594100Y-126975375D01*
X103626705Y-126913580D01*
X103642745Y-126899682D01*
X103782358Y-126798247D01*
X103782356Y-126798247D01*
X103782365Y-126798242D01*
X103938242Y-126642365D01*
X104067815Y-126464022D01*
X104167895Y-126267606D01*
X104236015Y-126057951D01*
X104270500Y-125840222D01*
X104270500Y-125619778D01*
X104236015Y-125402049D01*
X104167895Y-125192394D01*
X104167895Y-125192393D01*
X104133237Y-125124375D01*
X104067815Y-124995978D01*
X104051260Y-124973192D01*
X103938247Y-124817641D01*
X103938243Y-124817636D01*
X103782363Y-124661756D01*
X103782358Y-124661752D01*
X103642745Y-124560318D01*
X103600079Y-124504989D01*
X103594100Y-124435375D01*
X103626705Y-124373580D01*
X103642745Y-124359682D01*
X103782358Y-124258247D01*
X103782356Y-124258247D01*
X103782365Y-124258242D01*
X103938242Y-124102365D01*
X104067815Y-123924022D01*
X104167895Y-123727606D01*
X104236015Y-123517951D01*
X104270500Y-123300222D01*
X104270500Y-123079778D01*
X104236015Y-122862049D01*
X104167895Y-122652394D01*
X104167895Y-122652393D01*
X104102334Y-122523725D01*
X104067815Y-122455978D01*
X104051260Y-122433192D01*
X103938247Y-122277641D01*
X103938243Y-122277636D01*
X103782363Y-122121756D01*
X103782358Y-122121752D01*
X103604025Y-121992187D01*
X103604024Y-121992186D01*
X103604022Y-121992185D01*
X103541096Y-121960122D01*
X103407606Y-121892104D01*
X103407603Y-121892103D01*
X103197952Y-121823985D01*
X103089086Y-121806742D01*
X102980222Y-121789500D01*
X102759778Y-121789500D01*
X102687201Y-121800995D01*
X102542047Y-121823985D01*
X102332396Y-121892103D01*
X102332393Y-121892104D01*
X102135974Y-121992187D01*
X101957641Y-122121752D01*
X101957636Y-122121756D01*
X101801756Y-122277636D01*
X101801752Y-122277641D01*
X101672187Y-122455974D01*
X101572104Y-122652393D01*
X101572103Y-122652396D01*
X101503985Y-122862047D01*
X101503062Y-122867876D01*
X101469500Y-123079778D01*
X99120735Y-123079778D01*
X99133796Y-123062331D01*
X99184091Y-122927483D01*
X99190500Y-122867873D01*
X99190499Y-120972128D01*
X99184091Y-120912517D01*
X99133796Y-120777669D01*
X99133795Y-120777668D01*
X99133793Y-120777664D01*
X99047547Y-120662455D01*
X99047544Y-120662452D01*
X98932335Y-120576206D01*
X98932328Y-120576202D01*
X98797482Y-120525908D01*
X98797483Y-120525908D01*
X98737883Y-120519501D01*
X98737881Y-120519500D01*
X98737873Y-120519500D01*
X98737864Y-120519500D01*
X96842129Y-120519500D01*
X96842123Y-120519501D01*
X96782516Y-120525908D01*
X96647671Y-120576202D01*
X96647664Y-120576206D01*
X96532455Y-120662452D01*
X96532452Y-120662455D01*
X96446206Y-120777664D01*
X96446202Y-120777671D01*
X96395908Y-120912517D01*
X96394524Y-120925395D01*
X96389501Y-120972123D01*
X96389500Y-120972135D01*
X61797293Y-120972135D01*
X61792025Y-120925393D01*
X61792023Y-120925379D01*
X61732012Y-120662454D01*
X61719532Y-120607773D01*
X61611935Y-120300278D01*
X61470585Y-120006763D01*
X61297261Y-119730919D01*
X61094143Y-119476217D01*
X60863783Y-119245857D01*
X60609081Y-119042739D01*
X60333237Y-118869415D01*
X60333234Y-118869413D01*
X60039725Y-118728066D01*
X59732238Y-118620471D01*
X59732226Y-118620467D01*
X59414620Y-118547976D01*
X59414604Y-118547974D01*
X59090893Y-118511500D01*
X59090889Y-118511500D01*
X58765111Y-118511500D01*
X58765107Y-118511500D01*
X58441395Y-118547974D01*
X58441379Y-118547976D01*
X58123773Y-118620467D01*
X58123761Y-118620471D01*
X57816274Y-118728066D01*
X57522765Y-118869413D01*
X57246920Y-119042738D01*
X56992217Y-119245856D01*
X56761856Y-119476217D01*
X56558738Y-119730920D01*
X56385413Y-120006765D01*
X56244066Y-120300274D01*
X56136471Y-120607761D01*
X56136467Y-120607773D01*
X56063976Y-120925379D01*
X56063974Y-120925395D01*
X56027500Y-121249106D01*
X50030500Y-121249106D01*
X50030500Y-113121106D01*
X56027500Y-113121106D01*
X56027500Y-113446893D01*
X56063974Y-113770604D01*
X56063976Y-113770620D01*
X56136467Y-114088226D01*
X56136471Y-114088238D01*
X56244066Y-114395725D01*
X56385413Y-114689234D01*
X56385415Y-114689237D01*
X56558739Y-114965081D01*
X56761857Y-115219783D01*
X56992217Y-115450143D01*
X57246919Y-115653261D01*
X57522763Y-115826585D01*
X57816278Y-115967935D01*
X58047217Y-116048744D01*
X58123761Y-116075528D01*
X58123773Y-116075532D01*
X58441383Y-116148024D01*
X58765106Y-116184499D01*
X58765107Y-116184500D01*
X58765111Y-116184500D01*
X59090893Y-116184500D01*
X59090893Y-116184499D01*
X59414617Y-116148024D01*
X59732227Y-116075532D01*
X60039722Y-115967935D01*
X60333237Y-115826585D01*
X60609081Y-115653261D01*
X60863783Y-115450143D01*
X61094143Y-115219783D01*
X61297261Y-114965081D01*
X61470585Y-114689237D01*
X61611935Y-114395722D01*
X61702429Y-114137106D01*
X94889500Y-114137106D01*
X94889500Y-114462893D01*
X94925974Y-114786604D01*
X94925976Y-114786620D01*
X94998467Y-115104226D01*
X94998471Y-115104238D01*
X95106066Y-115411725D01*
X95247413Y-115705234D01*
X95247415Y-115705237D01*
X95420739Y-115981081D01*
X95623857Y-116235783D01*
X95854217Y-116466143D01*
X96108919Y-116669261D01*
X96384763Y-116842585D01*
X96678278Y-116983935D01*
X96909217Y-117064744D01*
X96985761Y-117091528D01*
X96985773Y-117091532D01*
X97303383Y-117164024D01*
X97627106Y-117200499D01*
X97627107Y-117200500D01*
X97627111Y-117200500D01*
X97952893Y-117200500D01*
X97952893Y-117200499D01*
X98276617Y-117164024D01*
X98594227Y-117091532D01*
X98901722Y-116983935D01*
X99195237Y-116842585D01*
X99471081Y-116669261D01*
X99725783Y-116466143D01*
X99956143Y-116235783D01*
X100159261Y-115981081D01*
X100332585Y-115705237D01*
X100473935Y-115411722D01*
X100581532Y-115104227D01*
X100654024Y-114786617D01*
X100690500Y-114462889D01*
X100690500Y-114137111D01*
X100690499Y-114137106D01*
X101239500Y-114137106D01*
X101239500Y-114462893D01*
X101275974Y-114786604D01*
X101275976Y-114786620D01*
X101348467Y-115104226D01*
X101348471Y-115104238D01*
X101456066Y-115411725D01*
X101597413Y-115705234D01*
X101597415Y-115705237D01*
X101770739Y-115981081D01*
X101973857Y-116235783D01*
X102204217Y-116466143D01*
X102458919Y-116669261D01*
X102734763Y-116842585D01*
X103028278Y-116983935D01*
X103259217Y-117064744D01*
X103335761Y-117091528D01*
X103335773Y-117091532D01*
X103653383Y-117164024D01*
X103977106Y-117200499D01*
X103977107Y-117200500D01*
X103977111Y-117200500D01*
X104302893Y-117200500D01*
X104302893Y-117200499D01*
X104626617Y-117164024D01*
X104944227Y-117091532D01*
X105251722Y-116983935D01*
X105545237Y-116842585D01*
X105821081Y-116669261D01*
X106075783Y-116466143D01*
X106306143Y-116235783D01*
X106509261Y-115981081D01*
X106682585Y-115705237D01*
X106823935Y-115411722D01*
X106931532Y-115104227D01*
X107004024Y-114786617D01*
X107040500Y-114462889D01*
X107040500Y-114137111D01*
X107004024Y-113813383D01*
X106931532Y-113495773D01*
X106823935Y-113188278D01*
X106682585Y-112894763D01*
X106509261Y-112618919D01*
X106306143Y-112364217D01*
X106075783Y-112133857D01*
X105821081Y-111930739D01*
X105545237Y-111757415D01*
X105545234Y-111757413D01*
X105251725Y-111616066D01*
X104944238Y-111508471D01*
X104944226Y-111508467D01*
X104626620Y-111435976D01*
X104626604Y-111435974D01*
X104302893Y-111399500D01*
X104302889Y-111399500D01*
X103977111Y-111399500D01*
X103977107Y-111399500D01*
X103653395Y-111435974D01*
X103653379Y-111435976D01*
X103335773Y-111508467D01*
X103335761Y-111508471D01*
X103028274Y-111616066D01*
X102734765Y-111757413D01*
X102458920Y-111930738D01*
X102204217Y-112133856D01*
X101973856Y-112364217D01*
X101770738Y-112618920D01*
X101597413Y-112894765D01*
X101456066Y-113188274D01*
X101348471Y-113495761D01*
X101348467Y-113495773D01*
X101275976Y-113813379D01*
X101275974Y-113813395D01*
X101239500Y-114137106D01*
X100690499Y-114137106D01*
X100654024Y-113813383D01*
X100581532Y-113495773D01*
X100473935Y-113188278D01*
X100332585Y-112894763D01*
X100159261Y-112618919D01*
X99956143Y-112364217D01*
X99725783Y-112133857D01*
X99471081Y-111930739D01*
X99195237Y-111757415D01*
X99195234Y-111757413D01*
X98901725Y-111616066D01*
X98594238Y-111508471D01*
X98594226Y-111508467D01*
X98276620Y-111435976D01*
X98276604Y-111435974D01*
X97952893Y-111399500D01*
X97952889Y-111399500D01*
X97627111Y-111399500D01*
X97627107Y-111399500D01*
X97303395Y-111435974D01*
X97303379Y-111435976D01*
X96985773Y-111508467D01*
X96985761Y-111508471D01*
X96678274Y-111616066D01*
X96384765Y-111757413D01*
X96108920Y-111930738D01*
X95854217Y-112133856D01*
X95623856Y-112364217D01*
X95420738Y-112618920D01*
X95247413Y-112894765D01*
X95106066Y-113188274D01*
X94998471Y-113495761D01*
X94998467Y-113495773D01*
X94925976Y-113813379D01*
X94925974Y-113813395D01*
X94889500Y-114137106D01*
X61702429Y-114137106D01*
X61717972Y-114092686D01*
X61717974Y-114092681D01*
X61719531Y-114088230D01*
X61719532Y-114088226D01*
X61792023Y-113770620D01*
X61792024Y-113770617D01*
X61828500Y-113446889D01*
X61828500Y-113121111D01*
X61792024Y-112797383D01*
X61719532Y-112479773D01*
X61611935Y-112172278D01*
X61470585Y-111878763D01*
X61297261Y-111602919D01*
X61094143Y-111348217D01*
X60863783Y-111117857D01*
X60609081Y-110914739D01*
X60333237Y-110741415D01*
X60333234Y-110741413D01*
X60039725Y-110600066D01*
X59732238Y-110492471D01*
X59732226Y-110492467D01*
X59414620Y-110419976D01*
X59414604Y-110419974D01*
X59090893Y-110383500D01*
X59090889Y-110383500D01*
X58765111Y-110383500D01*
X58765107Y-110383500D01*
X58441395Y-110419974D01*
X58441379Y-110419976D01*
X58123773Y-110492467D01*
X58123761Y-110492471D01*
X57816274Y-110600066D01*
X57522765Y-110741413D01*
X57246920Y-110914738D01*
X56992217Y-111117856D01*
X56761856Y-111348217D01*
X56558738Y-111602920D01*
X56385413Y-111878765D01*
X56244066Y-112172274D01*
X56136471Y-112479761D01*
X56136467Y-112479773D01*
X56063976Y-112797379D01*
X56063974Y-112797395D01*
X56027500Y-113121106D01*
X50030500Y-113121106D01*
X50030500Y-105765073D01*
X50363000Y-105765073D01*
X50363000Y-106070926D01*
X50397240Y-106374823D01*
X50397243Y-106374837D01*
X50465299Y-106673014D01*
X50465302Y-106673022D01*
X50566313Y-106961692D01*
X50566316Y-106961700D01*
X50699007Y-107237236D01*
X50699011Y-107237242D01*
X50861728Y-107496205D01*
X51052417Y-107735321D01*
X51268679Y-107951583D01*
X51507795Y-108142272D01*
X51766758Y-108304989D01*
X51766763Y-108304992D01*
X52042299Y-108437683D01*
X52042306Y-108437685D01*
X52042311Y-108437688D01*
X52259113Y-108513550D01*
X52330977Y-108538697D01*
X52330985Y-108538700D01*
X52330988Y-108538700D01*
X52330989Y-108538701D01*
X52629162Y-108606757D01*
X52629171Y-108606758D01*
X52629176Y-108606759D01*
X52831774Y-108629585D01*
X52933074Y-108640999D01*
X52933077Y-108641000D01*
X52933080Y-108641000D01*
X53238923Y-108641000D01*
X53238924Y-108640999D01*
X53394241Y-108623499D01*
X53542823Y-108606759D01*
X53542826Y-108606758D01*
X53542838Y-108606757D01*
X53841011Y-108538701D01*
X54129689Y-108437688D01*
X54129697Y-108437684D01*
X54129700Y-108437683D01*
X54405236Y-108304992D01*
X54405236Y-108304991D01*
X54405242Y-108304989D01*
X54664205Y-108142272D01*
X54903321Y-107951583D01*
X55119583Y-107735321D01*
X55310272Y-107496205D01*
X55472989Y-107237242D01*
X55605688Y-106961689D01*
X55706701Y-106673011D01*
X55774757Y-106374838D01*
X55809000Y-106070920D01*
X55809000Y-105765080D01*
X55808999Y-105765073D01*
X114879000Y-105765073D01*
X114879000Y-106070926D01*
X114913240Y-106374823D01*
X114913243Y-106374837D01*
X114981299Y-106673014D01*
X114981302Y-106673022D01*
X115082313Y-106961692D01*
X115082316Y-106961700D01*
X115215007Y-107237236D01*
X115215011Y-107237242D01*
X115377728Y-107496205D01*
X115568417Y-107735321D01*
X115784679Y-107951583D01*
X116023795Y-108142272D01*
X116282758Y-108304989D01*
X116282763Y-108304992D01*
X116558299Y-108437683D01*
X116558306Y-108437685D01*
X116558311Y-108437688D01*
X116775113Y-108513550D01*
X116846977Y-108538697D01*
X116846985Y-108538700D01*
X116846988Y-108538700D01*
X116846989Y-108538701D01*
X117145162Y-108606757D01*
X117145171Y-108606758D01*
X117145176Y-108606759D01*
X117347774Y-108629585D01*
X117449074Y-108640999D01*
X117449077Y-108641000D01*
X117449080Y-108641000D01*
X117754923Y-108641000D01*
X117754924Y-108640999D01*
X117910241Y-108623499D01*
X118058823Y-108606759D01*
X118058826Y-108606758D01*
X118058838Y-108606757D01*
X118357011Y-108538701D01*
X118645689Y-108437688D01*
X118645697Y-108437684D01*
X118645700Y-108437683D01*
X118921236Y-108304992D01*
X118921236Y-108304991D01*
X118921242Y-108304989D01*
X119180205Y-108142272D01*
X119419321Y-107951583D01*
X119635583Y-107735321D01*
X119826272Y-107496205D01*
X119988989Y-107237242D01*
X120121688Y-106961689D01*
X120222701Y-106673011D01*
X120290757Y-106374838D01*
X120325000Y-106070920D01*
X120325000Y-105765080D01*
X120290757Y-105461162D01*
X120222701Y-105162989D01*
X120121688Y-104874311D01*
X120121685Y-104874306D01*
X120121683Y-104874299D01*
X119988992Y-104598763D01*
X119988989Y-104598758D01*
X119826272Y-104339795D01*
X119635583Y-104100679D01*
X119419321Y-103884417D01*
X119180205Y-103693728D01*
X118921242Y-103531011D01*
X118921243Y-103531011D01*
X118921236Y-103531007D01*
X118645700Y-103398316D01*
X118645692Y-103398313D01*
X118357022Y-103297302D01*
X118357014Y-103297299D01*
X118133381Y-103246257D01*
X118058838Y-103229243D01*
X118058835Y-103229242D01*
X118058823Y-103229240D01*
X117754926Y-103195000D01*
X117754920Y-103195000D01*
X117449080Y-103195000D01*
X117449073Y-103195000D01*
X117145176Y-103229240D01*
X117145162Y-103229243D01*
X116846985Y-103297299D01*
X116846977Y-103297302D01*
X116558307Y-103398313D01*
X116558299Y-103398316D01*
X116282763Y-103531007D01*
X116023796Y-103693727D01*
X115784679Y-103884416D01*
X115568416Y-104100679D01*
X115377727Y-104339796D01*
X115215007Y-104598763D01*
X115082316Y-104874299D01*
X115082313Y-104874307D01*
X114981302Y-105162977D01*
X114981299Y-105162985D01*
X114913243Y-105461162D01*
X114913240Y-105461176D01*
X114879000Y-105765073D01*
X55808999Y-105765073D01*
X55774757Y-105461162D01*
X55706701Y-105162989D01*
X55605688Y-104874311D01*
X55605685Y-104874306D01*
X55605683Y-104874299D01*
X55472992Y-104598763D01*
X55472989Y-104598758D01*
X55310272Y-104339795D01*
X55119583Y-104100679D01*
X54903321Y-103884417D01*
X54664205Y-103693728D01*
X54405242Y-103531011D01*
X54405243Y-103531011D01*
X54405236Y-103531007D01*
X54129700Y-103398316D01*
X54129692Y-103398313D01*
X53841022Y-103297302D01*
X53841014Y-103297299D01*
X53617381Y-103246257D01*
X53542838Y-103229243D01*
X53542835Y-103229242D01*
X53542823Y-103229240D01*
X53238926Y-103195000D01*
X53238920Y-103195000D01*
X52933080Y-103195000D01*
X52933073Y-103195000D01*
X52629176Y-103229240D01*
X52629162Y-103229243D01*
X52330985Y-103297299D01*
X52330977Y-103297302D01*
X52042307Y-103398313D01*
X52042299Y-103398316D01*
X51766763Y-103531007D01*
X51507796Y-103693727D01*
X51268679Y-103884416D01*
X51052416Y-104100679D01*
X50861727Y-104339796D01*
X50699007Y-104598763D01*
X50566316Y-104874299D01*
X50566313Y-104874307D01*
X50465302Y-105162977D01*
X50465299Y-105162985D01*
X50397243Y-105461162D01*
X50397240Y-105461176D01*
X50363000Y-105765073D01*
X50030500Y-105765073D01*
X50030500Y-102986500D01*
X50050185Y-102919461D01*
X50102989Y-102873706D01*
X50154500Y-102862500D01*
X120533500Y-102862500D01*
X120600539Y-102882185D01*
G37*
%TD.AperFunction*%
%TD*%
M02*
